<svg xmlns="http://www.w3.org/2000/svg" width="470.461" height="400.066" viewBox="0 0 470.461 400.066">
  <g id="Grupo_59" data-name="Grupo 59" transform="translate(-717.885 -318.467)">
    <path id="shopping-bag-solid" d="M168.4,76.544V61.235a61.235,61.235,0,0,0-122.47,0V76.544H0V206.668A38.272,38.272,0,0,0,38.272,244.94H176.051a38.272,38.272,0,0,0,38.272-38.272V76.544ZM76.544,61.235a30.618,30.618,0,0,1,61.235,0V76.544H76.544Zm76.544,57.408a11.482,11.482,0,1,1,11.482-11.482A11.481,11.481,0,0,1,153.088,118.643Zm-91.853,0a11.482,11.482,0,1,1,11.482-11.482A11.481,11.481,0,0,1,61.235,118.643Z" transform="translate(852.839 402)" fill="#e0e0e0"/>
    <text id="_" data-name="+" transform="matrix(0.883, -0.469, 0.469, 0.883, 1116.891, 458.791)" fill="#e0e0e0" font-size="124" font-family="Montserrat-Medium, Montserrat" font-weight="500" letter-spacing="0.01em"><tspan x="-36.084" y="0">+</tspan></text>
    <text id="_2" data-name="+" transform="matrix(0.883, -0.469, 0.469, 0.883, 806.891, 660.791)" fill="#e0e0e0" font-size="124" font-family="Montserrat-Medium, Montserrat" font-weight="500" letter-spacing="0.01em"><tspan x="-36.084" y="0">+</tspan></text>
    <text id="_3" data-name="+" transform="matrix(0.883, -0.469, 0.469, 0.883, 834.891, 441.791)" fill="#e0e0e0" font-size="124" font-family="Montserrat-Medium, Montserrat" font-weight="500" letter-spacing="0.01em"><tspan x="-36.084" y="0">+</tspan></text>
    <text id="_4" data-name="+" transform="matrix(0.883, -0.469, 0.469, 0.883, 1141.124, 673.791)" fill="#e0e0e0" font-size="124" font-family="Montserrat-Medium, Montserrat" font-weight="500" letter-spacing="0.01em"><tspan x="-36.084" y="0">+</tspan></text>
  </g>
</svg>
